<?xml version="1.0" encoding="UTF-8" standalone="no"?>
<!DOCTYPE svg PUBLIC "-//W3C//DTD SVG 1.1//EN"
 "http://www.w3.org/Graphics/SVG/1.1/DTD/svg11.dtd">
<!-- Generated by graphviz version 2.43.0 (0)
 -->
<!-- Title: net/tcp_cli_server_setup.hh Pages: 1 -->
<svg width="232pt" height="151pt"
 viewBox="0.00 0.00 231.50 151.00" xmlns="http://www.w3.org/2000/svg" xmlns:xlink="http://www.w3.org/1999/xlink">
<g id="graph0" class="graph" transform="scale(1 1) rotate(0) translate(4 147)">
<title>net/tcp_cli_server_setup.hh</title>
<!-- Node1 -->
<g id="node1" class="node">
<title>Node1</title>
<g id="a_node1"><a xlink:title="Create TCP server for interactive and non&#45;interactive CLI clients.">
<polygon fill="#bfbfbf" stroke="black" points="54.5,-112.5 54.5,-142.5 157.5,-142.5 157.5,-112.5 54.5,-112.5"/>
<text text-anchor="start" x="62.5" y="-130.5" font-family="Helvetica,sans-Serif" font-size="10.00">net/tcp_cli_server</text>
<text text-anchor="middle" x="106" y="-119.5" font-family="Helvetica,sans-Serif" font-size="10.00">_setup.hh</text>
</a>
</g>
</g>
<!-- Node2 -->
<g id="node2" class="node">
<title>Node2</title>
<g id="a_node2"><a xlink:href="tcp__cli__server_8h.html" target="_top" xlink:title="TCP server for interactive and non&#45;interactive CLI clients.">
<polygon fill="none" stroke="black" points="0,-56.5 0,-75.5 92,-75.5 92,-56.5 0,-56.5"/>
<text text-anchor="middle" x="46" y="-63.5" font-family="Helvetica,sans-Serif" font-size="10.00">tcp_cli_server.h</text>
</a>
</g>
</g>
<!-- Node1&#45;&gt;Node2 -->
<g id="edge1" class="edge">
<title>Node1&#45;&gt;Node2</title>
<path fill="none" stroke="midnightblue" d="M91.78,-112.4C82.79,-103.49 71.16,-91.95 61.87,-82.74"/>
<polygon fill="midnightblue" stroke="midnightblue" points="64.3,-80.21 54.73,-75.66 59.37,-85.18 64.3,-80.21"/>
</g>
<!-- Node4 -->
<g id="node4" class="node">
<title>Node4</title>
<g id="a_node4"><a xlink:title=" ">
<polygon fill="none" stroke="#bfbfbf" points="110.5,-56.5 110.5,-75.5 223.5,-75.5 223.5,-56.5 110.5,-56.5"/>
<text text-anchor="middle" x="167" y="-63.5" font-family="Helvetica,sans-Serif" font-size="10.00">uout/uo_callbacks.h</text>
</a>
</g>
</g>
<!-- Node1&#45;&gt;Node4 -->
<g id="edge3" class="edge">
<title>Node1&#45;&gt;Node4</title>
<path fill="none" stroke="midnightblue" d="M120.46,-112.4C129.59,-103.49 141.42,-91.95 150.86,-82.74"/>
<polygon fill="midnightblue" stroke="midnightblue" points="153.41,-85.15 158.12,-75.66 148.52,-80.13 153.41,-85.15"/>
</g>
<!-- Node3 -->
<g id="node3" class="node">
<title>Node3</title>
<g id="a_node3"><a xlink:title=" ">
<polygon fill="none" stroke="#bfbfbf" points="15,-0.5 15,-19.5 77,-19.5 77,-0.5 15,-0.5"/>
<text text-anchor="middle" x="46" y="-7.5" font-family="Helvetica,sans-Serif" font-size="10.00">stdbool.h</text>
</a>
</g>
</g>
<!-- Node2&#45;&gt;Node3 -->
<g id="edge2" class="edge">
<title>Node2&#45;&gt;Node3</title>
<path fill="none" stroke="midnightblue" d="M46,-56.08C46,-49.01 46,-38.86 46,-29.99"/>
<polygon fill="midnightblue" stroke="midnightblue" points="49.5,-29.75 46,-19.75 42.5,-29.75 49.5,-29.75"/>
</g>
</g>
</svg>
